# xmcd
#
# Track frame offsets:
#	182
#	11070
#	21507
#	38582
#	50922
#	60995
#	69595
#	81712
#	97632
#	106395
#	123492
#	133722
#	148480
#	158950
#
# Disc length: 2267 seconds
#
# Revision: 0
# Processed by: cddbd v1.5.2PL0 Copyright (c) Steve Scherf et al.
# Submitted via: EasyCDDAExtractor 10.0.5.1
#
DISCID=ca08d90e
DTITLE=Denis Bergerot - Les Chansons Française
DYEAR=1900
DGENRE=Orgue De Barbarie
TTITLE0=La Java Bleue
TTITLE1=Barnum Circus
TTITLE2=Etoile Des Neiges
TTITLE3=Entrée Des Gladiateurs
TTITLE4=Le Temps De Cerises
TTITLE5=C'est Un Mauvais Garçon
TTITLE6=La Mattchiche
TTITLE7=Tout Va Très Bien Madame La Marquise
TTITLE8=La Valse Des As
TTITLE9=Le Plus Beau Tango Du Monde
TTITLE10=La Chansonnette
TTITLE11=On N'a Pas Tous Les Jours 20 Ans
TTITLE12=La Complainte Du Chanteur Des Rues
TTITLE13=La Valse Brune
EXTD=
EXTT0=
EXTT1=
EXTT2=
EXTT3=
EXTT4=
EXTT5=
EXTT6=
EXTT7=
EXTT8=
EXTT9=
EXTT10=
EXTT11=
EXTT12=
EXTT13=
PLAYORDER=
